<?xml version="1.0" encoding="UTF-8"?>
<svg width="59px" height="44px" viewBox="0 0 59 44" version="1.1" xmlns="http://www.w3.org/2000/svg" xmlns:xlink="http://www.w3.org/1999/xlink">
    <!-- Generator: Sketch 46.2 (44496) - http://www.bohemiancoding.com/sketch -->
    <title>account</title>
    <desc>Created with Sketch.</desc>
    <defs></defs>
    <g id="Page-1" stroke="none" stroke-width="1" fill="none" fill-rule="evenodd">
        <g id="1-Welcome" transform="translate(-219.000000, -283.000000)">
            <g id="Actions" transform="translate(30.000000, 94.000000)">
                <circle id="Oval-2" stroke="#E1E3E4" cx="157.5" cy="157.5" r="157.5"></circle>
                <path d="M158,315.5 C244.984848,315.5 315.5,244.984848 315.5,158" id="Oval-2" stroke="#FC591F" stroke-width="3"></path>
                <g id="account" transform="translate(189.000000, 189.000000)" fill="#F95A2E">
                    <path d="M44.2620613,41.312431 C43.719094,41.312431 43.278425,40.8727456 43.278425,40.3287947 L43.278425,30.4924313 C43.278425,29.9494641 43.719094,29.508795 44.2620613,29.508795 C44.8060122,29.508795 45.2456976,29.9494641 45.2456976,30.4924313 L45.2456976,40.3287947 C45.2456976,40.8727456 44.8060122,41.312431 44.2620613,41.312431" id="Fill-1"></path>
                    <path d="M44.2620613,18.6892871 C41.5501759,18.6892871 39.3438796,16.4829908 39.3438796,13.7711054 C39.3438796,11.0592201 41.5501759,8.85292375 44.2620613,8.85292375 C46.9739467,8.85292375 49.180243,11.0592201 49.180243,13.7711054 C49.180243,16.4829908 46.9739467,18.6892871 44.2620613,18.6892871 M44.2620613,10.8201964 C42.6361104,10.8201964 41.3111523,12.1441709 41.3111523,13.7711054 C41.3111523,15.3980399 42.6361104,16.7220144 44.2620613,16.7220144 C45.8889958,16.7220144 47.2129703,15.3980399 47.2129703,13.7711054 C47.2129703,12.1441709 45.8889958,10.8201964 44.2620613,10.8201964" id="Fill-3"></path>
                    <path d="M11.802554,41.312431 C11.2595868,41.312431 10.8189177,40.8727456 10.8189177,40.3287947 L10.8189177,30.4924313 C10.8189177,29.9494641 11.2595868,29.508795 11.802554,29.508795 C12.3455213,29.508795 12.7861904,29.9494641 12.7861904,30.4924313 L12.7861904,40.3287947 C12.7861904,40.8727456 12.3455213,41.312431 11.802554,41.312431" id="Fill-5"></path>
                    <path d="M26.5647714,11.8038328 C23.3099188,11.8038328 20.6629534,9.15686738 20.6629534,5.90201474 C20.6629534,2.64716211 23.3099188,0.000196727267 26.5647714,0.000196727267 C29.8196241,0.000196727267 32.4665894,2.64716211 32.4665894,5.90201474 C32.4665894,9.15686738 29.8196241,11.8038328 26.5647714,11.8038328 M26.5647714,1.9674694 C24.3948697,1.9674694 22.6302261,3.73211299 22.6302261,5.90201474 C22.6302261,8.0719165 24.3948697,9.83656009 26.5647714,9.83656009 C28.7346732,9.83656009 30.4993168,8.0719165 30.4993168,5.90201474 C30.4993168,3.73211299 28.7346732,1.9674694 26.5647714,1.9674694" id="Fill-7"></path>
                    <path d="M11.802554,11.8038328 C8.5477014,11.8038328 5.90073602,9.15686738 5.90073602,5.90201474 C5.90073602,2.64716211 8.5477014,0.000196727267 11.802554,0.000196727267 C15.0574067,0.000196727267 17.704372,2.64716211 17.704372,5.90201474 C17.704372,9.15686738 15.0574067,11.8038328 11.802554,11.8038328 M11.802554,1.9674694 C9.63265227,1.9674694 7.86800869,3.73211299 7.86800869,5.90201474 C7.86800869,8.0719165 9.63265227,9.83656009 11.802554,9.83656009 C13.9724558,9.83656009 15.7370994,8.0719165 15.7370994,5.90201474 C15.7370994,3.73211299 13.9724558,1.9674694 11.802554,1.9674694" id="Fill-9"></path>
                    <path d="M26.5647714,41.312431 C26.0218042,41.312431 25.5811351,40.8727456 25.5811351,40.3287947 L25.5811351,32.459704 C25.5811351,31.9167367 26.0218042,31.4760677 26.5647714,31.4760677 C27.1077387,31.4760677 27.5484078,31.9167367 27.5484078,32.459704 L27.5484078,40.3287947 C27.5484078,40.8727456 27.1077387,41.312431 26.5647714,41.312431" id="Fill-11"></path>
                    <path d="M28.5320441,43.2797037 C27.7766114,43.2797037 27.0870823,42.9944492 26.5647714,42.5262383 C26.0424605,42.9944492 25.3529315,43.2797037 24.5974988,43.2797037 C22.9705643,43.2797037 21.6465898,41.9557292 21.6465898,40.3287947 L21.6446225,28.5251586 L20.8311552,28.5251586 C20.2537607,28.5251586 19.7088262,28.2733477 19.3340607,27.8346459 C18.9602789,27.3969278 18.7979789,26.817566 18.8874898,26.2480405 L19.3606189,23.2941806 C18.4350171,24.0781388 17.1976026,24.5945479 16.092979,24.5945479 L16.0831426,24.5945479 C15.3503336,24.5915969 14.6765427,24.147977 14.2339063,23.3768061 C13.7794663,22.5820279 13.5345409,21.3062516 14.07259,20.3816334 L19.8081734,10.3849373 C20.3954043,9.36490646 21.2718243,9.06194647 21.9761079,8.81800466 C22.211197,8.73636284 22.460057,8.65275376 22.7148188,8.53176649 C23.206637,8.29864468 23.7919006,8.50815921 24.0250224,8.99801011 C24.2581442,9.48884464 24.0486297,10.0760755 23.5577952,10.3082137 C23.2331952,10.4626446 22.9184315,10.5737955 22.6194061,10.6770773 C21.9888952,10.8954446 21.7252807,10.9987264 21.5137988,11.3646391 L15.7762481,21.3652698 C15.7349354,21.4360916 15.6896881,21.7056079 15.8047736,22.0784061 C15.9139572,22.4334988 16.0890445,22.611537 16.1401935,22.6361279 C16.980219,22.6302261 18.2009117,21.929877 18.6494498,21.1596898 L20.2183498,18.2835371 C20.4485207,17.8625408 20.948208,17.669748 21.4006807,17.824179 C21.8531534,17.9786099 22.1295552,18.437968 22.0538152,18.9101135 L20.8301716,26.557886 L22.6282588,26.557886 C23.1712261,26.557886 23.6118952,26.9985551 23.6118952,27.5415223 L23.6138624,40.3287947 C23.6138624,40.8717619 24.0555151,41.312431 24.5974988,41.312431 C25.1394824,41.312431 25.5811351,40.8717619 25.5811351,40.3287947 C25.5811351,39.7858274 26.0218042,39.3451583 26.5647714,39.3451583 C27.1077387,39.3451583 27.5484078,39.7858274 27.5484078,40.3287947 C27.5484078,40.8717619 27.9900605,41.312431 28.5320441,41.312431 C29.0740277,41.312431 29.5156804,40.8717619 29.5156804,40.3287947 L29.5137132,27.5552932 C29.5137132,27.2926623 29.6179786,27.0418351 29.8029023,26.8578951 C29.9868422,26.6739551 30.2366859,26.5706733 30.4973495,26.5706733 L30.4993168,26.5706733 L32.3023222,26.5775587 L31.1278604,18.9396226 C31.0550713,18.4674771 31.3324568,18.0130371 31.7849295,17.8586062 C32.2383858,17.7071262 32.7351222,17.9009026 32.9623422,18.3199317 L34.5135367,21.1577225 C34.9463367,21.9131552 36.1611275,22.6203897 37.0532857,22.6233406 C37.0562366,22.6046515 37.2106675,22.4334988 37.3080475,22.1069316 C37.4103457,21.7695443 37.3818202,21.4803552 37.3306711,21.3908443 L31.6737786,11.4157882 C31.4465586,11.0164319 31.161304,10.9013464 30.479644,10.6593719 C30.1973404,10.559041 29.8992986,10.4518246 29.5894532,10.310181 C29.0956677,10.0849283 28.8782841,9.50163191 29.1035368,9.00686284 C29.3297732,8.51209376 29.9120859,8.29372649 30.406855,8.52094649 C30.6616168,8.63701557 30.9075259,8.72357557 31.1386804,8.80620102 C31.9128022,9.08063556 32.7882385,9.39244828 33.3862894,10.4459228 L39.0402311,20.4170443 C39.5772965,21.3544498 39.3304038,22.6292425 38.8730129,23.4161515 C38.437262,24.1646988 37.8136366,24.6152042 37.0473839,24.5906133 C35.9417766,24.5876624 34.7033785,24.0624006 33.7846621,23.2794261 L34.2459876,26.2775496 C34.3335312,26.8460914 34.1682803,27.4225023 33.7925312,27.8592369 C33.4148149,28.296955 32.8747985,28.5448314 32.2954367,28.5448314 L31.4809858,28.5418805 L31.4829531,40.3287947 C31.4829531,41.9557292 30.1589786,43.2797037 28.5320441,43.2797037" id="Fill-13"></path>
                    <path d="M13.7698267,43.2797037 C13.014394,43.2797037 12.3248649,42.9944492 11.802554,42.5262383 C11.2802431,42.9944492 10.5907141,43.2797037 9.83528136,43.2797037 C8.20834686,43.2797037 6.88437235,41.9557292 6.88437235,40.3287947 L6.88437235,21.0091934 L5.37744148,23.3168043 C4.89841059,23.9915788 4.21970152,24.4174933 3.44262881,24.5493006 C2.66555611,24.6811078 1.88356522,24.502086 1.24125069,24.0456788 C-0.0856747249,23.1023715 -0.397487443,21.2560861 0.54385253,19.9301443 L5.3725233,11.7866191 C6.25287782,10.4773992 7.47455415,9.57933918 8.93525411,9.14358829 C9.45559773,8.98719011 10.0044668,9.28326465 10.1598813,9.80459191 C10.3152959,10.3249355 10.0192214,10.872821 9.49887773,11.0282355 C8.47983049,11.3321791 7.62701778,11.9587555 7.03388507,12.83911 L2.19144339,21.0032916 C1.8343834,21.5118316 1.93864885,22.1275879 2.38030157,22.4413679 C2.82097065,22.7561315 3.43672699,22.6508825 3.75149062,22.2092297 L7.04470507,17.1671099 C7.28274507,16.8031644 7.73128324,16.6398808 8.14834504,16.7628353 C8.56540685,16.8867735 8.85164502,17.2703917 8.85164502,17.705159 L8.85164502,40.3287947 C8.85164502,40.8717619 9.29329774,41.312431 9.83528136,41.312431 C10.377265,41.312431 10.8189177,40.8717619 10.8189177,40.3287947 C10.8189177,39.7858274 11.2595868,39.3451583 11.802554,39.3451583 C12.3455213,39.3451583 12.7861904,39.7858274 12.7861904,40.3287947 C12.7861904,40.8717619 13.2278431,41.312431 13.7698267,41.312431 C14.3118103,41.312431 14.753463,40.8717619 14.753463,40.3287947 L14.753463,23.5302533 C14.753463,22.9872861 15.1941321,22.546617 15.7370994,22.546617 C16.2800666,22.546617 16.7207357,22.9872861 16.7207357,23.5302533 L16.7207357,40.3287947 C16.7207357,41.9557292 15.3967612,43.2797037 13.7698267,43.2797037" id="Fill-15"></path>
                    <path d="M18.6419742,15.3800394 C18.3055706,15.3800394 17.9790033,15.207903 17.7950633,14.8980576 L16.5468288,12.7920922 C15.9841888,11.9599358 15.1303925,11.3333595 14.109378,11.0274486 C13.5880507,10.8720341 13.2929598,10.3241486 13.4483743,9.803805 C13.6028053,9.28346137 14.152658,8.98443593 14.6720179,9.14280138 C16.1346852,9.58051955 17.3583288,10.4785795 18.2091742,11.7415686 L19.4869178,13.8947485 C19.7643033,14.3619758 19.6098724,14.9659285 19.1426451,15.2423303 C18.9852633,15.3357757 18.8121433,15.3800394 18.6419742,15.3800394" id="Fill-17"></path>
                    <g id="Group-21" transform="translate(36.394544, 14.754545)">
                        <path d="M21.5702596,10.4191679 L12.6191689,2.3631863 C12.4922798,2.24908448 12.3614562,2.14088449 12.2227635,2.03661903 L11.3689671,1.4021736 C11.2942108,1.33430269 11.2165035,1.27626815 11.0807617,1.17888815 C10.6568144,0.842484522 10.0371235,0.911339065 9.69973627,1.33626996 C9.3593981,1.76120086 9.43021992,2.37990811 9.85515081,2.71827901 C9.90334899,2.7556572 9.95056354,2.79008447 9.99876172,2.82451174 L10.1207326,2.91992446 L11.0404326,3.60945353 C11.1299435,3.67732444 11.2184708,3.74716262 11.3030635,3.82388626 L20.2541542,11.8818351 C20.6584287,12.2447969 20.768596,12.8280933 20.5256378,13.3317151 C20.3485832,13.7035296 20.0731651,13.9356678 19.7279087,14.0045223 C19.3452742,14.0792787 18.9262451,13.940586 18.572136,13.6218878 L12.4598198,8.12237704 C12.1706307,7.86269705 11.7555362,7.79580978 11.4024108,7.95417523 C11.0473181,8.11254068 10.8181308,8.46468249 10.8181308,8.85321884 L10.8181308,25.4688038 C10.8181308,25.9980002 10.4620544,26.469162 10.0076144,26.544902 C9.70957264,26.5901493 9.42136719,26.5153929 9.19808174,26.3245674 C8.9777472,26.1366929 8.85085811,25.8642256 8.85085811,25.5750366 C8.85085811,25.030102 8.41117267,24.5914002 7.86722178,24.5914002 C7.32523816,24.5914002 6.88358544,25.030102 6.88358544,25.5750366 C6.88358544,25.8642256 6.75767999,26.1366929 6.53734545,26.3245674 C6.31307637,26.5144093 6.02683819,26.5911329 5.72879638,26.544902 C5.2743564,26.469162 4.91631277,25.9980002 4.91631277,25.4688038 L4.91631277,6.88594617 C4.91631277,6.610528 4.80122732,6.34789709 4.59958187,6.16198983 C4.39695279,5.97608256 4.13038734,5.88362074 3.85103462,5.90526074 L1.87294195,6.07051165 C1.33095833,6.11575892 0.929634701,6.59085527 0.974881973,7.13185525 C1.01816197,7.67285524 1.49030741,8.07614614 2.03622558,8.03089886 L2.9490401,7.95515887 L2.9490401,25.4688038 C2.9490401,26.9590129 4.00841643,28.2574128 5.41206548,28.4856165 C5.57338184,28.5121747 5.7346982,28.5249619 5.89503092,28.5249619 C6.59538,28.5249619 7.27408907,28.2800365 7.81213814,27.8216619 C7.83082723,27.8069074 7.84951632,27.7911692 7.86722178,27.7744474 C7.88591087,27.7911692 7.90459996,27.8069074 7.92328905,27.8216619 C8.58330903,28.3843019 9.45776173,28.6272601 10.3233617,28.4856165 C11.7270108,28.2574128 12.7854035,26.9590129 12.7854035,25.4688038 L12.7854035,11.0614824 L17.2560306,15.084555 C18.074416,15.8212986 19.1160869,16.1301605 20.1115269,15.9324496 C21.057785,15.7465423 21.8564977,15.1081623 22.3001177,14.1825605 C22.9227595,12.8841605 22.6296359,11.3713279 21.5702596,10.4191679" id="Fill-19"></path>
                    </g>
                    <path d="M36.5485819,19.003854 C36.0410255,19.003854 35.6121601,18.6153177 35.5688801,18.1018595 C35.5236328,17.5608595 35.9269237,17.0847795 36.4679237,17.0395322 L38.8866854,16.8388704 C39.5909691,16.7798523 40.261809,16.5241068 40.8293672,16.1001595 C40.8293672,16.0942577 40.9070745,16.0342559 40.986749,15.977205 C41.4077454,15.6358832 42.0559617,15.6811305 42.3972835,16.1040941 C42.7386053,16.5260741 42.7012272,17.1251086 42.2782635,17.4674141 L42.1385872,17.5716795 C42.1149799,17.5943031 42.0353054,17.654305 42.0087472,17.6739777 C41.1460981,18.3212104 40.1231163,18.7097467 39.0499691,18.7992577 L36.6312073,19.0009031 C36.6036655,19.0028704 36.5751401,19.003854 36.5485819,19.003854" id="Fill-22"></path>
                </g>
            </g>
        </g>
    </g>
</svg>