<?xml version="1.0" encoding="UTF-8"?>
<svg width="60px" height="42px" viewBox="0 0 60 42" version="1.1" xmlns="http://www.w3.org/2000/svg" xmlns:xlink="http://www.w3.org/1999/xlink">
    <!-- Generator: Sketch 46.2 (44496) - http://www.bohemiancoding.com/sketch -->
    <title>assistance</title>
    <desc>Created with Sketch.</desc>
    <defs></defs>
    <g id="Page-1" stroke="none" stroke-width="1" fill="none" fill-rule="evenodd">
        <g id="1-Welcome" transform="translate(-95.000000, -284.000000)">
            <g id="Actions" transform="translate(30.000000, 94.000000)">
                <circle id="Oval-2" stroke="#E1E3E4" cx="157.5" cy="157.5" r="157.5"></circle>
                <path d="M121.246009,222.579 C113.931009,226.741 103.076009,227.637 95.1070091,227.637 C88.5410091,227.637 76.6050091,226.945 68.7520091,222.428 L68.7520091,221.253 L70.9710091,221.253 C72.0060091,221.253 72.8460091,220.413 72.8460091,219.376 C72.8460091,210.184 78.4890091,200.771 86.0080091,197.362 L86.0080091,213.804 C86.0080091,214.841 86.8460091,215.681 87.8830091,215.681 C88.9200091,215.681 89.7600091,214.841 89.7600091,213.804 L89.7600091,193.754 L100.240009,193.754 L100.240009,213.804 C100.240009,214.841 101.080009,215.681 102.117009,215.681 C103.154009,215.681 103.992009,214.841 103.992009,213.804 L103.992009,197.258 L104.031009,197.275 C111.642009,200.605 117.381009,210.106 117.381009,219.376 C117.381009,220.413 118.222009,221.253 119.258009,221.253 L121.246009,221.253 L121.246009,222.579 Z M123.123009,217.499 L121.070009,217.499 C120.369009,207.314 114.052009,197.563 105.535009,193.837 L103.992009,193.162 C103.976009,191.416 102.553009,190 100.803009,190 L89.1970091,190 C87.4370091,190 86.0080091,191.431 86.0080091,193.19 L86.0080091,193.262 L84.7170091,193.824 C76.1880091,197.548 69.8600091,207.304 69.1560091,217.498 L66.8750091,217.498 C65.8380091,217.498 65.0000091,218.338 65.0000091,219.375 L65.0000091,223.484 C64.9980091,224.125 65.3260091,224.721 65.8650091,225.066 C74.0540091,230.289 86.2850091,231.387 95.1070091,231.387 C103.894009,231.387 116.062009,230.318 124.125009,225.228 C124.670009,224.885 125.000009,224.285 125.000009,223.641 L125.000009,219.374 C125.000009,218.339 124.160009,217.499 123.123009,217.499 L123.123009,217.499 Z" id="assistance" fill="#434F5A"></path>
            </g>
        </g>
    </g>
</svg>