<?xml version="1.0" encoding="UTF-8"?>
<svg width="13px" height="22px" viewBox="0 0 13 22" version="1.1" xmlns="http://www.w3.org/2000/svg" xmlns:xlink="http://www.w3.org/1999/xlink">
    <!-- Generator: Sketch 46.2 (44496) - http://www.bohemiancoding.com/sketch -->
    <title>backicon</title>
    <desc>Created with Sketch.</desc>
    <defs>
        <path d="M10.3306154,0.9855 L0.966807692,9.97546154 C0.439269231,10.4811923 0.439269231,11.3254615 0.966807692,11.8332692 L10.3306154,20.8211538 C10.9048846,21.3725769 11.8114615,21.3725769 12.3857308,20.8211538 C12.9932308,20.2375385 12.9932308,19.2655385 12.3857308,18.6808846 L4.54326923,11.1520385 C4.401,11.016 4.401,10.7906538 4.54326923,10.6546154 L12.3857308,3.12576923 C12.9932308,2.54215385 12.9932308,1.57015385 12.3857308,0.9855 C12.0980769,0.711346154 11.7283846,0.573230769 11.3586923,0.573230769 C10.9879615,0.573230769 10.6182692,0.711346154 10.3306154,0.9855 Z" id="path-1"></path>
    </defs>
    <g id="Page-1" stroke="none" stroke-width="1" fill="none" fill-rule="evenodd">
        <g id="2-Account" transform="translate(-8.000000, -31.000000)">
            <g id="Navigation-Bar---Hierarchical">
                <g id="Left" transform="translate(0.000000, 20.000000)">
                    <g id="backicon" transform="translate(8.000000, 11.000000)">
                        <mask id="mask-2" fill="white">
                            <use xlink:href="#path-1"></use>
                        </mask>
                        <use id="Back" fill="#F95A2E" xlink:href="#path-1"></use>
                    </g>
                </g>
            </g>
        </g>
    </g>
</svg>