<?xml version="1.0" encoding="UTF-8"?>
<svg width="39px" height="38px" viewBox="0 0 39 38" version="1.1" xmlns="http://www.w3.org/2000/svg" xmlns:xlink="http://www.w3.org/1999/xlink">
    <!-- Generator: Sketch 46.2 (44496) - http://www.bohemiancoding.com/sketch -->
    <title>bathtube</title>
    <desc>Created with Sketch.</desc>
    <defs></defs>
    <g id="Page-1" stroke="none" stroke-width="1" fill="none" fill-rule="evenodd">
        <g id="2-Account" transform="translate(-168.000000, -384.000000)">
            <g id="Group-2" transform="translate(39.000000, 363.000000)">
                <g id="bathtube" transform="translate(129.000000, 21.000000)">
                    <path d="M14,16 C15.104,16 16,16.902 16,18.008 L16,25.991 C16,27.101 15.112,28 14,28 L7.999,28 C6.895,28 6,27.098 6,25.991 L6,18.008 C6,16.899 6.887,16 7.999,16 L14,16 Z" id="Fill-1" fill="#434F5A"></path>
                    <path d="M33,19.0217179 L33,3.91312855 C33,3.40931325 32.8825068,2.72255919 32.5177672,2.01330464 C31.8812608,0.77382117 30.687939,0 28.9633437,0 C27.2326184,0 26.0474701,0.781647427 25.4375273,2.03091372 C25.100373,2.72060262 24.9941183,3.39659558 25.0002484,3.91997652 C25.0012701,3.92975934 25.0012701,3.92975934 25.0012701,3.93562904 C25.0145519,4.47564077 25.4824812,4.90315007 26.0464484,4.8904324 C26.6104155,4.87771473 27.0579112,4.42966151 27.0436077,3.88964977 L27.0436077,3.89649775 C27.042586,3.83290941 27.0507595,3.71355899 27.0742581,3.56094698 C27.1120602,3.31637644 27.1825561,3.07571904 27.2877891,2.85951869 C27.5738594,2.27450597 28.0571139,1.95656427 28.9633437,1.95656427 C29.8767253,1.95656427 30.3793917,2.28233222 30.6838523,2.87712776 C30.8861448,3.26844062 30.9566407,3.68225396 30.9566407,3.91312855 L30.9566407,19.0217179 C30.9566407,19.5617296 31.4133315,20 31.9783204,20 C32.5422875,20 33,19.5617296 33,19.0217179" id="Fill-3" fill="#434F5A"></path>
                    <path d="M24,8 C24,6.896 24.896,6 26,6 C27.104,6 28,6.896 28,8 L24,8 Z M26,4 C23.791,4 22,5.791 22,8 L22,10 L24,10 L28,10 L30,10 L30,8 C30,5.791 28.209,4 26,4 L26,4 Z" id="Fill-5" fill="#434F5A"></path>
                    <path d="M25.8311688,36 L27.8571429,36 L27.8571429,35 L25.8311688,35 L25.8311688,36 Z M10.6363636,36 L12.6623377,36 L12.6623377,35 L10.6363636,35 L10.6363636,36 Z M37.987013,19 L34.6948052,19 L13.6753247,19 L13.6753247,21 L34.9480519,21 L34.9480519,27 C34.9480519,30.314 32.2261558,33 28.862026,33 L9.63148052,33 C6.27342857,33 3.54545455,30.308 3.54545455,27 L3.54545455,21 L7.5974026,21 L7.5974026,19 L4.05194805,19 L1.01298701,19 C0.453818182,19 0,19.448 0,20 C0,20.552 0.453818182,21 1.01298701,21 L1.51948052,21 L1.51948052,27 C1.51948052,31.069 4.61212987,34.44 8.61038961,34.937 L8.61038961,37 C8.61038961,37.557 9.05914286,38 9.61425974,38 L13.6844416,38 C14.2314545,38 14.6883117,37.553 14.6883117,37 L14.6883117,35 L23.8051948,35 L23.8051948,37 C23.8051948,37.557 24.2539481,38 24.8090649,38 L28.8792468,38 C29.4262597,38 29.8831169,37.553 29.8831169,37 L29.8831169,34.937 C33.8844156,34.442 36.974026,31.077 36.974026,27 L36.974026,21 L37.987013,21 C38.5471948,21 39,20.552 39,20 C39,19.448 38.5471948,19 37.987013,19 L37.987013,19 Z" id="Fill-7" fill="#434F5A"></path>
                    <path d="M14,25 C14,25.609 14,26 14,26 C14,26 8,25.997 8,25.991 L8,25 L14,25 Z" id="Fill-9" fill="#FFFFFF"></path>
                    <path d="M14,23 C14,20.733 13.9990003,18.008 13.9990003,18.008 C13.9990003,18.003 8.00074978,18 8.00074978,18 C7.99975007,18 7.99975007,20.731 8.00074978,23 L14,23 Z" id="Fill-10" fill="#F1F2F3"></path>
                </g>
            </g>
        </g>
    </g>
</svg>