<?xml version="1.0" encoding="UTF-8"?>
<svg width="35px" height="38px" viewBox="0 0 35 38" version="1.1" xmlns="http://www.w3.org/2000/svg" xmlns:xlink="http://www.w3.org/1999/xlink">
    <!-- Generator: Sketch 46.2 (44496) - http://www.bohemiancoding.com/sketch -->
    <title>bed</title>
    <desc>Created with Sketch.</desc>
    <defs>
        <polygon id="path-1" points="17.49995 38 0 38 0 0 17.49995 0 34.9999 0 34.9999 38"></polygon>
        <polygon id="path-3" points="17.49995 38 0 38 0 0 17.49995 0 34.9999 0 34.9999 38"></polygon>
    </defs>
    <g id="Page-1" stroke="none" stroke-width="1" fill="none" fill-rule="evenodd">
        <g id="2-Account" transform="translate(-72.000000, -483.000000)">
            <g id="Group-2" transform="translate(39.000000, 462.000000)">
                <g id="bed" transform="translate(33.000000, 21.000000)">
                    <mask id="mask-2" fill="white">
                        <use xlink:href="#path-1"></use>
                    </mask>
                    <g id="Clip-2"></g>
                    <mask id="mask-4" fill="white">
                        <use xlink:href="#path-3"></use>
                    </mask>
                    <g id="Clip-2"></g>
                    <path d="M2.0249,27 L5.6499,12 L6.9999,12 C7.0049,13.662 8.3419,15 9.9999,15 L12.9999,15 C14.6619,15 15.9949,13.654 15.9999,12 L18.9999,12 C19.0049,13.662 20.3419,15 21.9999,15 L24.9999,15 C26.6619,15 27.9949,13.654 27.9999,12 L29.3499,12 L32.9999,27 L2.0249,27 Z M32.9999,31 C32.9999,32.112 32.1049,33 30.9989,33 L17.4999,33 L4.0009,33 C2.8959,33 1.9999,32.112 1.9999,31 L1.9999,29 L17.4999,29 L32.9999,29 L32.9999,31 Z M26.9999,36 L28.9999,36 L28.9999,35 L26.9999,35 L26.9999,36 Z M5.9999,36 L7.9999,36 L7.9999,35 L5.9999,35 L5.9999,36 Z M13.9999,10.009 L13.9999,11.991 C13.9999,12.548 13.5559,13 12.9999,13 L9.9999,13 C9.4479,13 8.9999,12.557 8.9999,11.991 L8.9999,10.009 C8.9999,9.452 9.4439,9 9.9999,9 L12.9999,9 C13.5519,9 13.9999,9.443 13.9999,10.009 L13.9999,10.009 Z M25.9999,10.009 L25.9999,11.991 C25.9999,12.548 25.5569,13 24.9999,13 L21.9999,13 C21.4469,13 20.9999,12.557 20.9999,11.991 L20.9999,10.009 C20.9999,9.452 21.4429,9 21.9999,9 L24.9999,9 C25.5529,9 25.9999,9.443 25.9999,10.009 L25.9999,10.009 Z M5.9999,5.001 C5.9999,3.344 7.3359,2 9.0069,2 L25.9929,2 C27.6539,2 28.9999,3.339 28.9999,5.001 L28.9999,10 L27.9999,10 C27.9949,8.338 26.6579,7 24.9999,7 L21.9999,7 C20.3379,7 19.0049,8.346 18.9999,10 L15.9999,10 C15.9949,8.338 14.6579,7 12.9999,7 L9.9999,7 C8.3379,7 7.0049,8.346 6.9999,10 L5.9999,10 L5.9999,5.001 Z M34.9429,26.527 L31.2929,11.527 L30.9999,10.322 L30.9999,10 L30.9999,5.001 C30.9999,2.235 28.7589,0 25.9929,0 L9.0069,0 C6.2349,0 3.9999,2.236 3.9999,5.001 L3.9999,10 L3.9999,10.313 L3.7059,11.53 L0.0809,26.53 L-0.0001,27 L-0.0001,29 L-0.0001,31 C-0.0001,33.215 1.7899,35 3.9999,35 L3.9999,37 C3.9999,37.557 4.4469,38 4.9979,38 L9.0019,38 C9.5449,38 9.9999,37.553 9.9999,37 L9.9999,35 L17.4999,35 L24.9999,35 L24.9999,37 C24.9999,37.557 25.4469,38 25.9979,38 L30.0019,38 C30.5449,38 30.9999,37.553 30.9999,37 L30.9999,35 C33.2109,35 34.9999,33.215 34.9999,31 L34.9999,29 L34.9999,27 L34.9429,26.527 Z" id="Fill-1" fill="#434F5A" mask="url(#mask-4)"></path>
                </g>
            </g>
        </g>
    </g>
</svg>