<?xml version="1.0" encoding="UTF-8"?>
<svg width="21px" height="22px" viewBox="0 0 21 22" version="1.1" xmlns="http://www.w3.org/2000/svg" xmlns:xlink="http://www.w3.org/1999/xlink">
    <!-- Generator: Sketch 46.2 (44496) - http://www.bohemiancoding.com/sketch -->
    <title>close</title>
    <desc>Created with Sketch.</desc>
    <defs>
        <path d="M10.3306154,0.9855 L0.966807692,9.97546154 C0.439269231,10.4811923 0.439269231,11.3254615 0.966807692,11.8332692 L10.3306154,20.8211538 C10.9048846,21.3725769 11.8114615,21.3725769 12.3857308,20.8211538 C12.9932308,20.2375385 12.9932308,19.2655385 12.3857308,18.6808846 L4.54326923,11.1520385 C4.401,11.016 4.401,10.7906538 4.54326923,10.6546154 L12.3857308,3.12576923 C12.9932308,2.54215385 12.9932308,1.57015385 12.3857308,0.9855 C12.0980769,0.711346154 11.7283846,0.573230769 11.3586923,0.573230769 C10.9879615,0.573230769 10.6182692,0.711346154 10.3306154,0.9855 Z" id="path-1"></path>
        <path d="M18.5445486,1.41902369 L9.38694116,10.5562732 C8.87101961,11.0702896 8.87101961,11.928391 9.38694116,12.4445184 L18.5445486,21.579657 C19.1061718,22.1401143 19.9927851,22.1401143 20.5544083,21.579657 C21.1485306,20.9864799 21.1485306,19.998555 20.5544083,19.4043224 L12.8846455,11.7521267 C12.7455092,11.6138594 12.7455092,11.3848213 12.8846455,11.246554 L20.5544083,3.59435823 C21.1485306,3.00118113 21.1485306,2.01325627 20.5544083,1.41902369 C20.2730889,1.14037821 19.9115376,1 19.5499862,1 C19.1874193,1 18.825868,1.14037821 18.5445486,1.41902369 Z" id="path-3"></path>
    </defs>
    <g id="Page-1" stroke="none" stroke-width="1" fill="none" fill-rule="evenodd">
        <g id="3-2-Chatbot" transform="translate(-345.000000, -31.000000)">
            <g id="Navigation-Bar---Hierarchical">
                <g id="Left" transform="translate(285.000000, 42.000000) scale(-1, 1) translate(-285.000000, -42.000000) translate(195.000000, 20.000000)">
                    <g id="close" transform="translate(9.000000, 11.000000)">
                        <g id="Icon" transform="translate(6.500000, 11.000000) scale(-1, 1) translate(-6.500000, -11.000000) ">
                            <mask id="mask-2" fill="white">
                                <use xlink:href="#path-1"></use>
                            </mask>
                            <use id="Back" fill="#F95A2E" xlink:href="#path-1"></use>
                        </g>
                        <g id="Icon" transform="translate(9.000000, 1.000000)"></g>
                        <mask id="mask-4" fill="white">
                            <use xlink:href="#path-3"></use>
                        </mask>
                        <use id="Back" fill="#F95A2E" xlink:href="#path-3"></use>
                    </g>
                </g>
            </g>
        </g>
    </g>
</svg>