<?xml version="1.0" encoding="UTF-8"?>
<svg width="74px" height="66px" viewBox="0 0 74 66" version="1.1" xmlns="http://www.w3.org/2000/svg" xmlns:xlink="http://www.w3.org/1999/xlink">
    <!-- Generator: Sketch 46.2 (44496) - http://www.bohemiancoding.com/sketch -->
    <title>concierge@3x</title>
    <desc>Created with Sketch.</desc>
    <defs></defs>
    <g id="Page-1" stroke="none" stroke-width="1" fill="none" fill-rule="evenodd">
        <g id="0-Loader" transform="translate(-150.000000, -211.000000)">
            <g id="concierge" transform="translate(150.000000, 211.000000)">
                <path d="M53.9854,8.8018 L58.7854,8.8018 L58.7854,18.2318 L53.9854,14.1118 L53.9854,8.8018 Z M73.4454,30.8018 L61.7854,20.8018 L61.7854,7.3018 C61.7854,6.4738 61.1144,5.8018 60.2854,5.8018 L52.4854,5.8018 C51.6574,5.8018 50.9854,6.4738 50.9854,7.3018 L50.9854,11.5218 L37.9854,0.3818 C37.4164,-0.1272 36.5544,-0.1272 35.9854,0.3818 L0.5254,30.8018 C-0.1046,31.3408 -0.1786,32.2868 0.3604,32.9168 C0.6504,33.2568 1.0784,33.4498 1.5254,33.4418 L12.1854,33.4418 L12.1854,56.5218 C12.1854,57.3498 12.8574,58.0218 13.6854,58.0218 L16.9854,58.0218 C17.8144,58.0218 18.4854,57.3498 18.4854,56.5218 C18.4854,55.6938 17.8144,55.0218 16.9854,55.0218 L15.1854,55.0218 L15.1854,31.9418 C15.1854,31.1138 14.5134,30.4418 13.6854,30.4418 L5.5554,30.4418 L36.9854,3.5218 L68.4154,30.4418 L60.2854,30.4418 C59.4574,30.4418 58.7854,31.1138 58.7854,31.9418 L58.7854,55.0218 L56.9854,55.0218 C56.1574,55.0218 55.4854,55.6938 55.4854,56.5218 C55.4854,57.3498 56.1574,58.0218 56.9854,58.0218 L60.2854,58.0218 C61.1144,58.0218 61.7854,57.3498 61.7854,56.5218 L61.7854,33.4418 L72.4754,33.4418 C73.3034,33.4558 73.9864,32.7958 74.0014,31.9678 C74.0074,31.5198 73.8154,31.0928 73.4754,30.8018 L73.4454,30.8018 Z" id="Fill-1" fill="#F65B38"></path>
                <path d="M50.6036,62.3169 L42.7426,59.8549 L42.7426,57.5919 L47.3076,57.5919 L47.3076,55.2109 L42.7426,55.2109 L42.7426,52.9469 L50.6036,50.4859 L50.6036,62.3169 Z M40.3606,59.8549 L40.1616,59.9349 C38.2556,60.6489 36.1116,60.6489 34.2066,59.9349 L34.0076,59.8549 L34.0076,52.9469 L34.1666,52.9079 C36.0726,52.1929 38.2156,52.1929 40.1226,52.8679 L40.3606,52.9469 L40.3606,59.8549 Z M23.3676,50.4459 L31.6256,52.9079 L31.6256,55.2109 L26.9406,55.2109 L26.9406,57.5919 L31.6256,57.5919 L31.6256,59.8549 L23.3676,62.3569 L23.3676,50.4459 Z M52.5086,47.9049 C52.1916,47.6669 51.7936,47.6279 51.4366,47.7469 L41.5116,50.8429 L40.9156,50.6439 C38.4546,49.7709 35.7546,49.7709 33.3326,50.6839 L32.8566,50.8819 L22.5336,47.7859 C22.1766,47.6669 21.7796,47.7469 21.4616,47.9839 C21.1446,48.2219 20.9856,48.5799 20.9856,48.9369 L20.9856,64.0239 C20.9856,64.3809 21.1446,64.7389 21.4616,64.9769 C21.6606,65.1349 21.9376,65.2149 22.1766,65.2149 C22.2956,65.2149 22.4146,65.2149 22.5336,65.1749 L32.8956,62.0789 L33.4126,62.2769 C34.6436,62.7129 35.9136,62.9519 37.2236,62.9519 C38.5346,62.9519 39.8046,62.7129 41.0356,62.2769 L41.5506,62.0789 L51.4766,65.1749 C51.5556,65.1349 51.6746,65.1349 51.7936,65.1349 C52.0326,65.1349 52.3106,65.0559 52.5086,64.8979 C52.8266,64.6599 52.9856,64.3019 52.9856,63.9449 L52.9856,48.8579 C52.9856,48.4609 52.8266,48.1029 52.5086,47.9049 L52.5086,47.9049 Z" id="Fill-4" fill="#F65B38"></path>
                <path d="M23.1695,37.4214 C23.1695,35.2454 24.9335,33.4814 27.1095,33.4814 C29.2855,33.4814 31.0495,35.2454 31.0495,37.4214" id="Stroke-6" stroke="#F65B38" stroke-width="3"></path>
                <path d="M42.9209,37.4214 C42.9209,35.2454 44.6849,33.4814 46.8609,33.4814 C49.0369,33.4814 50.8019,35.2454 50.8019,37.4214" id="Stroke-8" stroke="#F65B38" stroke-width="3"></path>
            </g>
        </g>
    </g>
</svg>