<?xml version="1.0" encoding="UTF-8"?>
<svg width="32px" height="32px" viewBox="0 0 32 32" version="1.1" xmlns="http://www.w3.org/2000/svg" xmlns:xlink="http://www.w3.org/1999/xlink">
    <!-- Generator: Sketch 46.2 (44496) - http://www.bohemiancoding.com/sketch -->
    <title>Group 6</title>
    <desc>Created with Sketch.</desc>
    <defs></defs>
    <g id="Page-1" stroke="none" stroke-width="1" fill="none" fill-rule="evenodd">
        <g id="2-Account" transform="translate(-16.000000, -633.000000)">
            <g id="Group-4" transform="translate(0.000000, 582.000000)">
                <g id="Controls/TableViewCell/Light-Large" transform="translate(0.000000, 37.000000)">
                    <g id="Group" transform="translate(16.000000, 14.000000)">
                        <g id="Group-6">
                            <circle id="Oval-3" fill="#F95A2E" cx="16" cy="16" r="16"></circle>
                            <path d="M20.8245777,23.1807222 C19.9946982,23.1807222 19.3469874,22.5127704 19.3469874,21.7031319 L19.3469874,20.2255416 C19.3469874,19.7802404 18.9826501,19.4159031 18.5373489,19.4159031 L11.3315661,19.4159031 L11.4125299,10.4289156 C11.4125299,9.98361437 11.7768673,9.61927703 12.2221684,9.61927703 L21.4925295,9.61927703 C21.9378306,9.61927703 22.302168,9.98361437 22.302168,10.4289156 L22.302168,21.7031319 C22.302168,22.5127704 21.6544572,23.1807222 20.8245777,23.1807222 L20.8245777,23.1807222 Z M10.0968673,23.1807222 C9.28722881,23.1807222 8.61927703,22.5127704 8.61927703,21.7031319 C8.61927703,21.3387946 8.92289148,21.0351801 9.28722881,21.0351801 L17.7277104,21.0351801 L17.7277104,21.7031319 C17.7277104,22.2293969 17.8491561,22.735421 18.0920477,23.1807222 L10.0968673,23.1807222 Z M21.4925295,8 L12.2221684,8 C10.8862649,8 9.81349385,9.07277104 9.79325289,10.4086746 L9.71228903,19.3956621 L9.28722881,19.3956621 C8.01204815,19.3956621 7,20.4279512 7,21.6828909 C7,23.302168 8.2549397,24.6583125 9.8944577,24.7797583 L9.99566251,24.7797583 L20.6828909,24.7797583 L20.7233729,24.7797583 L20.8245777,24.7797583 C22.5450595,24.7797583 23.921445,23.3831318 23.921445,21.6828909 L23.921445,10.4289156 C23.921445,9.093012 22.848674,8 21.4925295,8 L21.4925295,8 Z" id="Fill-1" fill="#FFFFFF"></path>
                            <path d="M13.1127506,12.7971487 L16.6549191,12.7971487 C17.1002203,12.7971487 17.4645576,12.4328114 17.4645576,11.9875102 C17.4645576,11.542209 17.1002203,11.1778717 16.6549191,11.1778717 L13.1127506,11.1778717 C12.6674494,11.1778717 12.303112,11.542209 12.303112,11.9875102 C12.303112,12.4328114 12.6674494,12.7971487 13.1127506,12.7971487" id="Fill-3" fill="#FFFFFF"></path>
                            <path d="M20.2983936,13.8091968 L13.1128518,13.8091968 C12.6675506,13.8091968 12.3032133,14.1735342 12.3032133,14.6188354 C12.3032133,15.0641365 12.6675506,15.4284739 13.1128518,15.4284739 L20.2983936,15.4284739 C20.7434924,15.4284739 21.1080321,15.0641365 21.1080321,14.6188354 C21.1080321,14.1735342 20.7434924,13.8091968 20.2983936,13.8091968" id="Fill-5" fill="#FFFFFF"></path>
                            <path d="M20.2983936,16.440522 L13.1128518,16.440522 C12.6675506,16.440522 12.3032133,16.8048594 12.3032133,17.2501605 C12.3032133,17.6954617 12.6675506,18.0597991 13.1128518,18.0597991 L20.2983936,18.0597991 C20.7434924,18.0597991 21.1080321,17.6954617 21.1080321,17.2501605 C21.1080321,16.8048594 20.7434924,16.440522 20.2983936,16.440522" id="Fill-7" fill="#FFFFFF"></path>
                        </g>
                    </g>
                </g>
            </g>
        </g>
    </g>
</svg>