<?xml version="1.0" encoding="UTF-8"?>
<svg width="32px" height="32px" viewBox="0 0 32 32" version="1.1" xmlns="http://www.w3.org/2000/svg" xmlns:xlink="http://www.w3.org/1999/xlink">
    <!-- Generator: Sketch 46.2 (44496) - http://www.bohemiancoding.com/sketch -->
    <title>Group 5</title>
    <desc>Created with Sketch.</desc>
    <defs></defs>
    <g id="Page-1" stroke="none" stroke-width="1" fill="none" fill-rule="evenodd">
        <g id="2-Account" transform="translate(-16.000000, -992.000000)">
            <g id="Incoming-moves" transform="translate(0.000000, 978.000000)">
                <g id="Controls/TableViewCell/Light-Large">
                    <g id="Group" transform="translate(16.000000, 14.000000)">
                        <g id="Group-5">
                            <circle id="Oval-3" fill="#434F5A" cx="16" cy="16" r="16"></circle>
                            <path d="M20.1963258,8.22341348 L19.2862135,9.13352584 C18.3429326,10.077009 18.3429326,11.6221775 19.2862135,12.5654584 C20.2294944,13.5087393 21.7748652,13.5087393 22.7181461,12.5654584 L23.6282584,11.6616157 C23.6834719,12.6552562 23.3412697,13.661436 22.579,14.4235034 C21.5495618,15.4529416 20.0699213,15.7322449 18.7868652,15.2767843 C18.5670225,15.1975034 18.3212921,15.2517056 18.1548427,15.4159303 L10.2797416,23.2908292 C9.79697753,23.7737955 9.04340449,23.7735933 8.56064045,23.2908292 C8.07807865,22.8080652 8.0778764,22.0544921 8.56064045,21.5717281 L16.4357416,13.7030989 C16.602191,13.5380652 16.6588202,13.2921326 16.5811573,13.0710764 C16.1256966,11.7880202 16.3987303,10.3081775 17.4279663,9.27894157 C18.190236,8.51667191 19.2026854,8.1682 20.1963258,8.22341348 M20.3099888,7.00993034 C18.9676742,6.92397528 17.592191,7.39561573 16.568618,8.41939101 C15.309427,9.67837978 14.9362809,11.4545146 15.3549326,13.0646045 L7.7075618,20.7184472 C6.76407865,21.6617281 6.76407865,23.2070989 7.7075618,24.1503798 C8.6508427,25.0936607 10.1960112,25.0936607 11.1392921,24.1503798 L18.7933371,16.4965371 C20.4030225,16.9143798 22.1801685,16.5416382 23.4385506,15.2830539 C24.8035169,13.9180876 25.1764607,11.9356607 24.5699213,10.2268742 C24.4572697,9.91136854 24.1104157,9.74653708 23.7947079,9.85898652 C23.7107753,9.88871685 23.6345281,9.93685169 23.5712247,9.99934607 L21.8648652,11.7059079 C21.3818989,12.1886719 20.6285281,12.1886719 20.145764,11.7059079 C19.6627978,11.2231438 19.6627978,10.4758404 20.145764,9.9930764 L21.8523258,8.28651461 C22.090573,8.05109888 22.0927978,7.66703146 21.857382,7.42858202 C21.7920562,7.36244719 21.7123708,7.31228989 21.6245955,7.28175056 C21.1974494,7.13006517 20.7573596,7.03864944 20.3099888,7.00993034" id="Fill-1" fill="#FFFFFF"></path>
                        </g>
                    </g>
                </g>
            </g>
        </g>
    </g>
</svg>
