<?xml version="1.0" encoding="UTF-8"?>
<svg width="35px" height="38px" viewBox="0 0 35 38" version="1.1" xmlns="http://www.w3.org/2000/svg" xmlns:xlink="http://www.w3.org/1999/xlink">
    <!-- Generator: Sketch 46.2 (44496) - http://www.bohemiancoding.com/sketch -->
    <title>oven</title>
    <desc>Created with Sketch.</desc>
    <defs></defs>
    <g id="Page-1" stroke="none" stroke-width="1" fill="none" fill-rule="evenodd">
        <g id="2-Account" transform="translate(-72.000000, -384.000000)" fill="#434F5A">
            <g id="Group-2" transform="translate(39.000000, 363.000000)">
                <g id="oven" transform="translate(33.000000, 21.000000)">
                    <g id="Group-3">
                        <path d="M1.96919604,8.86138219 L1.96919604,3.1320063 C1.96919604,3.0345311 2.41423435,2.95379406 2.95379406,2.95379406 L31.5081213,2.95379406 C32.0535886,2.95379406 32.4927193,3.0335465 32.4927193,3.1320063 L32.4927193,8.86138219 L1.96919604,8.86138219 Z M32.4927193,34.7021572 C32.4927193,35.1097808 32.0486656,35.4455288 31.5081213,35.4455288 L2.95379406,35.4455288 C2.40832676,35.4455288 1.96919604,35.1137192 1.96919604,34.7021572 L1.96919604,10.8305782 L32.4927193,10.8305782 L32.4927193,34.7021572 Z M31.5081213,0.984598021 C31.5081213,0.441099913 31.0670214,0 30.5235232,0 L25.5995485,0 C25.0560504,0 24.6149505,0.441099913 24.6149505,0.984598021 L21.6611565,0.984598021 C21.6611565,0.441099913 21.2210411,0 20.6765584,0 L13.7843723,0 C13.2408742,0 12.7997743,0.441099913 12.7997743,0.984598021 L9.84598021,0.984598021 C9.84598021,0.441099913 9.40586489,0 8.86138219,0 L3.93839208,0 C3.39489398,0 2.95379406,0.441099913 2.95379406,0.984598021 C1.33019193,0.984598021 0,2.30592856 0,3.93543829 L0,34.4648691 C0,36.096348 1.32231514,37.4147248 2.95379406,37.4147248 L31.5081213,37.4147248 C33.1317234,37.4147248 34.4619153,36.0933942 34.4619153,34.4648691 L34.4619153,3.93543829 C34.4619153,2.30297477 33.1396002,0.984598021 31.5081213,0.984598021 L31.5081213,0.984598021 Z" id="Fill-1"></path>
                    </g>
                    <path d="M8.50134588,29.4335683 L27.2028007,29.4335683 L27.2028007,16.6337941 L8.50134588,16.6337941 L8.50134588,29.4335683 Z M30.1595485,13.68 L5.54459802,13.68 C5.00109991,13.68 4.56,14.1210999 4.56,14.664598 C4.56,15.2080961 5.00109991,15.649196 5.54459802,15.649196 L6.52919604,15.649196 L6.52919604,30.4181664 C6.52919604,30.9547723 6.97128055,31.4027644 7.51674786,31.4027644 L28.1873987,31.4027644 C28.742712,31.4027644 29.1749505,30.9626491 29.1749505,30.4181664 L29.1749505,15.649196 L30.1595485,15.649196 C30.7030466,15.649196 31.1441466,15.2080961 31.1441466,14.664598 C31.1441466,14.1210999 30.7030466,13.68 30.1595485,13.68 L30.1595485,13.68 Z" id="Fill-4"></path>
                    <path d="M9.62118527,7.87678417 C10.7081815,7.87678417 11.5903813,6.99458434 11.5903813,5.90758813 C11.5903813,4.82059191 10.7081815,3.93839208 9.62118527,3.93839208 C8.53418905,3.93839208 7.65198923,4.82059191 7.65198923,5.90758813 C7.65198923,6.99458434 8.53418905,7.87678417 9.62118527,7.87678417" id="Fill-6"></path>
                    <path d="M26.3593516,7.87678417 C27.4463478,7.87678417 28.3285477,6.99458434 28.3285477,5.90758813 C28.3285477,4.82059191 27.4463478,3.93839208 26.3593516,3.93839208 C25.2723554,3.93839208 24.3901556,4.82059191 24.3901556,5.90758813 C24.3901556,6.99458434 25.2723554,7.87678417 26.3593516,7.87678417" id="Fill-8"></path>
                </g>
            </g>
        </g>
    </g>
</svg>