<?xml version="1.0" encoding="UTF-8"?>
<svg width="17px" height="19px" viewBox="0 0 17 19" version="1.1" xmlns="http://www.w3.org/2000/svg" xmlns:xlink="http://www.w3.org/1999/xlink">
    <!-- Generator: Sketch 46.2 (44496) - http://www.bohemiancoding.com/sketch -->
    <title>oven</title>
    <desc>Created with Sketch.</desc>
    <defs></defs>
    <g id="Page-1" stroke="none" stroke-width="1" fill="none" fill-rule="evenodd">
        <g id="2-Account" transform="translate(-26.000000, -1182.000000)" fill="#FFFFFF">
            <g id="oven" transform="translate(26.000000, 1182.000000)">
                <g id="Group-3">
                    <path d="M0.971238847,4.37210505 L0.971238847,1.54529624 C0.971238847,1.49720308 1.19081568,1.45736835 1.4570283,1.45736835 L15.5454081,1.45736835 C15.8145355,1.45736835 16.0311976,1.49671729 16.0311976,1.54529624 L16.0311976,4.37210505 L0.971238847,4.37210505 Z M16.0311976,17.1216492 C16.0311976,17.322766 15.8121065,17.4884202 15.5454081,17.4884202 L1.4570283,17.4884202 C1.18790094,17.4884202 0.971238847,17.3247091 0.971238847,17.1216492 L0.971238847,5.34368395 L16.0311976,5.34368395 L16.0311976,17.1216492 Z M15.5454081,0.48578945 C15.5454081,0.217633673 15.3277745,0 15.0596187,0 L12.6301856,0 C12.3620299,0 12.1443962,0.217633673 12.1443962,0.48578945 L10.6870278,0.48578945 C10.6870278,0.217633673 10.46988,0 10.2012384,0 L6.80071224,0 C6.53255647,0 6.31492279,0.217633673 6.31492279,0.48578945 L4.85755444,0.48578945 C4.85755444,0.217633673 4.64040656,0 4.37176499,0 L1.94281775,0 C1.67466197,0 1.4570283,0.217633673 1.4570283,0.48578945 C0.655961494,0.48578945 -0.000340052615,1.13771889 -0.000340052615,1.94170043 L-0.000340052615,17.0045739 C-0.000340052615,17.809527 0.652075178,18.4599991 1.4570283,18.4599991 L15.5454081,18.4599991 C16.3464749,18.4599991 17.0027765,17.8080696 17.0027765,17.0045739 L17.0027765,1.94170043 C17.0027765,1.13626152 16.3503612,0.48578945 15.5454081,0.48578945 L15.5454081,0.48578945 Z" id="Fill-1"></path>
                </g>
                <path d="M3.88777297,14.5736835 L13.1148578,14.5736835 L13.1148578,8.25842064 L3.88777297,8.25842064 L3.88777297,14.5736835 Z M14.5736835,6.80105229 L2.42894725,6.80105229 C2.16079147,6.80105229 1.9431578,7.01868597 1.9431578,7.28684174 C1.9431578,7.55499752 2.16079147,7.77263119 2.42894725,7.77263119 L2.9147367,7.77263119 L2.9147367,15.0594729 C2.9147367,15.3242282 3.13285616,15.5452624 3.40198352,15.5452624 L13.6006472,15.5452624 C13.8746325,15.5452624 14.087894,15.3281145 14.087894,15.0594729 L14.087894,7.77263119 L14.5736835,7.77263119 C14.8418393,7.77263119 15.0594729,7.55499752 15.0594729,7.28684174 C15.0594729,7.01868597 14.8418393,6.80105229 14.5736835,6.80105229 L14.5736835,6.80105229 Z" id="Fill-4"></path>
                <path d="M4.37200789,3.8863156 C4.90831944,3.8863156 5.34358679,3.45104825 5.34358679,2.9147367 C5.34358679,2.37842515 4.90831944,1.9431578 4.37200789,1.9431578 C3.83569634,1.9431578 3.40042899,2.37842515 3.40042899,2.9147367 C3.40042899,3.45104825 3.83569634,3.8863156 4.37200789,3.8863156" id="Fill-6"></path>
                <path d="M8.50121821,3.8863156 C8.90393766,3.8863156 9.22990238,3.56035088 9.22990238,3.15763142 C9.22990238,2.75491197 8.90393766,2.42894725 8.50121821,2.42894725 C8.09898455,2.42894725 7.77253404,2.75491197 7.77253404,3.15763142 C7.77253404,3.56035088 8.09898455,3.8863156 8.50121821,3.8863156" id="Fill-7"></path>
                <path d="M12.6304285,3.8863156 C13.1667401,3.8863156 13.6020074,3.45104825 13.6020074,2.9147367 C13.6020074,2.37842515 13.1667401,1.9431578 12.6304285,1.9431578 C12.094117,1.9431578 11.6588496,2.37842515 11.6588496,2.9147367 C11.6588496,3.45104825 12.094117,3.8863156 12.6304285,3.8863156" id="Fill-8"></path>
            </g>
        </g>
    </g>
</svg>