<?xml version="1.0" encoding="UTF-8"?>
<svg width="58px" height="60px" viewBox="0 0 58 60" version="1.1" xmlns="http://www.w3.org/2000/svg" xmlns:xlink="http://www.w3.org/1999/xlink">
    <!-- Generator: Sketch 46.2 (44496) - http://www.bohemiancoding.com/sketch -->
    <title>renove</title>
    <desc>Created with Sketch.</desc>
    <defs></defs>
    <g id="Page-1" stroke="none" stroke-width="1" fill="none" fill-rule="evenodd">
        <g id="1-Welcome" transform="translate(-220.000000, -151.000000)">
            <g id="Actions" transform="translate(30.000000, 94.000000)">
                <circle id="Oval-2" stroke="#E1E3E4" cx="157.5" cy="157.5" r="157.5"></circle>
                <g id="renove" transform="translate(190.000000, 57.000000)" fill="#434F5A">
                    <path d="M54.1846084,17.3463521 L51.8082422,19.7314201 C49.9119621,21.6334364 46.8395312,21.6334364 44.9438528,19.7314201 L42.3087936,17.0867118 C40.4173264,15.182884 40.4173264,12.1010138 42.3087936,10.1971861 L44.6851597,7.81211801 C39.8145115,8.17682209 36.1609237,12.436131 36.5248987,17.3246147 C36.5255003,17.3354834 36.526102,17.3469559 36.5273052,17.3584284 C36.7252354,19.7519498 35.8655323,22.1128653 34.1750035,23.8132075 L22.058544,35.9438447 C20.3800473,37.6302992 18.0494036,38.4925466 15.68146,38.3047602 L14.9956227,38.3047602 C10.3583997,38.2884572 6.49605267,41.8696822 6.14591467,46.5106019 L8.52228086,44.1255339 C10.4179593,42.2235176 13.4909918,42.2235176 15.3866703,44.1255339 L18.0217295,46.7581659 C19.9131967,48.6619937 19.9131967,51.7438639 18.0217295,53.6476916 L15.6453633,56.0327597 C20.5166132,55.6740938 24.1756155,51.4196154 23.8176565,46.5305278 C23.8164533,46.5196591 23.8158517,46.5093943 23.8152501,46.4985256 C23.626344,44.1146652 24.4854455,41.7676375 26.1675518,40.0739373 L38.2840113,27.9131093 C39.9679225,26.219409 42.3093952,25.355954 44.6851597,25.5521938 L45.3709971,25.5521938 C49.9943829,25.5497785 53.8356736,21.9733841 54.1846084,17.3463521 L54.1846084,17.3463521 Z M57.7942785,15.4745265 C58.4686852,22.3441263 53.4668856,28.4619768 46.6223494,29.1388531 C46.2084406,29.1799125 45.7927269,29.1998384 45.3770132,29.1992346 C45.058159,29.1992346 44.7332887,29.1992346 44.4144345,29.1630057 C43.0914904,29.0416389 41.7829849,29.5150297 40.840861,30.4551691 L28.7244015,42.6341116 C27.7882937,43.580893 27.3112157,44.8911709 27.4189041,46.2207709 C27.9537369,53.1030508 22.8286069,59.1170452 15.9720385,59.6538364 C15.6471681,59.6791966 15.3210946,59.6918768 14.9956227,59.6918768 C14.5925428,59.6918768 14.1834469,59.6918768 13.7923993,59.6314953 C12.6613693,59.5258277 11.6957825,58.7692479 11.3197752,57.6932501 C10.9329389,56.6190638 11.1976481,55.4180763 11.9995964,54.607757 L15.4708959,51.1237462 C15.9575998,50.6358639 15.9582014,49.8442629 15.4720991,49.3563806 C15.4720991,49.3557768 15.4714975,49.355173 15.4708959,49.3545691 L12.8358367,46.7098608 C12.3431167,46.2370739 11.566436,46.2370739 11.0731144,46.7098608 L7.60783108,50.1938716 C6.45454147,51.3513843 4.58413071,51.3519882 3.43023948,50.1944754 C2.94534046,49.7084046 2.64453461,49.0671533 2.57835733,48.3824275 C1.89612967,41.5134315 6.89191317,35.3901467 13.7358478,34.7060246 C14.4662044,34.632963 15.2019755,34.6251134 15.9341369,34.681872 C17.2594875,34.7941815 18.5667897,34.3153565 19.5077104,33.3715941 L31.6241699,21.2228424 C32.5608793,20.276061 33.0379574,18.9657831 32.9296673,17.6361831 C32.3948345,10.7539032 37.5205661,4.73990884 44.3771346,4.20311757 C45.1044831,4.14635899 45.8360429,4.15360477 46.5621882,4.22545871 C47.6932182,4.33112629 48.658805,5.08830992 49.0348123,6.16370389 C49.4294696,7.24694746 49.1587443,8.46121881 48.3429588,9.27334958 L44.8716594,12.7573604 C44.3849555,13.2452427 44.3843539,14.0362399 44.8704561,14.524726 C44.8710578,14.5253298 44.8716594,14.5259336 44.8716594,14.5265374 L47.5127347,17.1712458 C48.0054547,17.6446365 48.782737,17.6446365 49.275457,17.1712458 L52.7467564,13.687235 C53.9000461,12.5291184 55.7704568,12.5285146 56.924348,13.6860274 C57.4092471,14.172702 57.7100529,14.8133494 57.7762302,15.4986791 L57.7942785,15.4745265 Z M46.7246234,51.8604001 C45.8516848,51.8428895 45.0244687,51.4649015 44.4384989,50.8158007 L35.5346459,40.7743623 C34.8704666,40.0262359 33.7268027,39.9592125 32.9808042,40.6264277 C32.2348057,41.2930391 32.1686285,42.4414947 32.8334094,43.1896211 L41.7492947,53.2310595 C42.9970373,54.6276829 44.7657757,55.4434365 46.6343816,55.4832883 L46.8148651,55.4832883 C50.5797511,55.4760425 53.6251095,52.4074563 53.6184918,48.6293877 C53.6148821,46.6947654 52.795487,44.8525268 51.3630495,43.5579481 L41.3582471,34.6456431 C40.6122486,33.9784279 39.4691864,34.0448475 38.8044054,34.7935777 C38.1396245,35.542308 38.2058018,36.6895559 38.9518003,37.3567711 L48.9566028,46.2569997 C50.2705227,47.44893 50.3733983,49.4837855 49.1864184,50.8025168 C49.1509233,50.8423686 49.114225,50.8804089 49.0769251,50.9184492 C48.4596715,51.5506432 47.6059845,51.8930061 46.7246234,51.8604001 L46.7246234,51.8604001 Z M4.47945028,35.0683134 C-1.492749,29.0742449 -1.49335061,19.3558474 4.47884867,13.3617789 C4.47884867,13.3611751 4.47945028,13.3611751 4.47945028,13.3611751 L10.5316639,7.28679923 C10.7807312,7.03863139 11.0959757,6.86835564 11.4400976,6.79770932 C11.6897664,6.74396981 11.9484595,6.74396981 12.1981283,6.79770932 L14.135318,7.22037961 C14.1834469,7.22883302 14.232779,7.21313383 14.2676725,7.17811258 C14.3278337,7.12316544 14.3549062,7.04104665 14.3398659,6.96073929 C14.1533663,6.10332242 13.93077,5.0466467 13.93077,5.0466467 C13.8020251,4.44585108 13.9855166,3.82090287 14.4180755,3.38615629 L16.7884255,1.00712638 C18.1047519,-0.326700284 20.2494976,-0.336965134 21.5784578,0.984181423 L21.6013191,1.00712638 L29.2959326,8.75406894 C30.6248929,10.080046 30.6315106,12.2362683 29.3103713,13.570095 C29.3055584,13.5749255 29.3007455,13.579756 29.2959326,13.5845865 L26.9315987,15.9636164 C26.4984383,16.3977592 25.8757702,16.5819227 25.2771665,16.4527063 L23.2918479,16.030036 C23.2214594,16.2232567 23.1907772,16.4285537 23.2016062,16.6338507 C23.3387736,17.2642333 23.6768794,17.8318191 24.1641849,18.2520741 L26.5104705,20.2507008 C27.2678996,20.9010092 27.3569381,22.0446342 26.7090023,22.8048369 C26.0610666,23.5650396 24.921614,23.6544042 24.1641849,23.0040958 L21.8118832,20.9813165 C20.7253724,20.0387618 19.9733578,18.7671281 19.6701455,17.3584284 C19.4451428,16.0964557 19.7212825,14.795235 20.4402085,13.7355402 C21.215686,12.6667882 22.5452478,12.1559609 23.8332985,12.4313004 L25.0666024,12.6969789 L26.58868,11.1330988 L19.1828401,3.72429252 L17.6667786,5.2519437 L17.8713266,6.19389463 C18.1480679,7.46552838 17.7624349,8.79090164 16.8485867,9.71413431 C15.9443643,10.6415937 14.6280379,11.0370923 13.365255,10.7587337 L12.390644,10.5292841 L7.03028386,15.9092731 C2.81178266,20.1450332 2.45141726,26.8902472 6.1940436,31.5541119 L6.97012269,30.9502972 C6.09056639,28.1534275 6.83776812,25.0981251 8.90731234,23.0282484 C9.05169915,22.8833328 9.20029723,22.7462669 9.35250499,22.6176544 C12.4333585,20.0665373 16.9815429,20.4614321 19.5799038,23.505262 L21.4449,25.6488042 C22.1012584,26.4023649 22.0242521,27.5471976 21.2734407,28.2059594 C20.5226293,28.8647212 19.3819735,28.7874329 18.7256152,28.0338722 L16.8846834,25.9265589 C15.5894134,24.3675094 13.2882487,24.1368522 11.7108228,25.4072783 L11.4701782,25.6246516 C10.173705,26.9125883 9.85063948,28.8918929 10.6700346,30.5276269 C11.1356821,31.4617282 10.8667616,32.5962961 10.0323262,33.2206404 L7.2588963,35.2856867 C6.40159964,35.920296 5.21161171,35.8333466 4.45538581,35.0803897 L4.47945028,35.0683134 Z" id="Fill-1"></path>
                </g>
            </g>
        </g>
    </g>
</svg>