<?xml version="1.0" encoding="UTF-8"?>
<svg width="35px" height="38px" viewBox="0 0 35 38" version="1.1" xmlns="http://www.w3.org/2000/svg" xmlns:xlink="http://www.w3.org/1999/xlink">
    <!-- Generator: Sketch 46.2 (44496) - http://www.bohemiancoding.com/sketch -->
    <title>sofa</title>
    <desc>Created with Sketch.</desc>
    <defs></defs>
    <g id="Page-1" stroke="none" stroke-width="1" fill="none" fill-rule="evenodd">
        <g id="2-Account" transform="translate(-270.000000, -384.000000)" fill="#434F5A">
            <g id="Group-2" transform="translate(39.000000, 363.000000)">
                <path d="M235,30 L241,30 L241,23 L235,23 L235,30 Z M233,23 L233,30 L233,32 L235,32 L241,32 L243,32 L243,30 L243,23 L243,21 L241,21 L235,21 L233,21 L233,23 Z M248,30 L253,30 L253,25 L248,25 L248,30 Z M246,25 L246,30 L246,32 L248,32 L253,32 L255,32 L255,30 L255,25 L255,23 L253,23 L248,23 L246,23 L246,25 Z M260,30 L263,30 L263,23 L260,23 L260,30 Z M258,22.467 L258,30.533 L258,32 L259.272,32 L263.728,32 L265,32 L265,30.533 L265,22.467 L265,21 L263.728,21 L259.272,21 L258,21 L258,22.467 Z M237,57 L239,57 L239,56 L237,56 L237,57 Z M259,57 L261,57 L261,56 L259,56 L259,57 Z M261,40 C259.338,40.001 258,41.348 258,43.009 L258,48.172 C257.686,48.061 257.347,48 256.993,48 L240.007,48 C239.653,48 239.314,48.061 239,48.171 L239,43.009 C239,41.337 237.657,40.001 236,40 L236,38.009 C236,37.45 236.447,37 236.994,37 L260.006,37 C260.554,37 261,37.449 261,38.009 L261,40 Z M260,43.002 C260,42.449 260.443,42 261.01,42 L262.99,42 C263.548,42 264,42.456 264,43.002 L264,52.997 C264,53.551 263.557,54 262.99,54 L261.01,54 C260.452,54 260,53.544 260,52.997 L260,43.002 Z M233,43.002 C233,42.449 233.443,42 234.009,42 L235.991,42 C236.548,42 237,42.456 237,43.002 L237,52.997 C237,53.551 236.557,54 235.991,54 L234.009,54 C233.452,54 233,53.544 233,52.997 L233,43.002 Z M258,52.99 C258,53.548 257.549,54 257.005,54 L239.995,54 C239.445,54 239,53.557 239,52.99 L239,51.01 C239,50.452 239.451,50 239.995,50 L257.005,50 C257.555,50 258,50.443 258,51.01 L258,52.99 Z M235,58 C235,58.557 235.443,59 235.991,59 L240.009,59 C240.549,59 241,58.553 241,58 L241,56 L257,56 L257,58 C257,58.557 257.443,59 257.991,59 L262.009,59 C262.549,59 263,58.553 263,58 L263,56 C264.662,55.999 266,54.652 266,52.99 L266,43.009 C266,41.337 264.657,40.001 263,40 L263,38.009 C263,36.346 261.659,35 260.006,35 L236.994,35 C235.34,35 234,36.347 234,38.009 L234,40 C232.338,40.001 231,41.348 231,43.009 L231,52.99 C231,54.663 232.344,56 234.001,56 L235,56 L235,58 Z" id="sofa"></path>
            </g>
        </g>
    </g>
</svg>