<?xml version="1.0" encoding="UTF-8"?>
<svg width="32px" height="32px" viewBox="0 0 32 32" version="1.1" xmlns="http://www.w3.org/2000/svg" xmlns:xlink="http://www.w3.org/1999/xlink">
    <!-- Generator: Sketch 46.2 (44496) - http://www.bohemiancoding.com/sketch -->
    <title>status</title>
    <desc>Created with Sketch.</desc>
    <defs></defs>
    <g id="Page-1" stroke="none" stroke-width="1" fill="none" fill-rule="evenodd">
        <g id="1-Welcome" transform="translate(-16.000000, -491.000000)">
            <g id="Incoming-moves" transform="translate(0.000000, 440.000000)">
                <g id="Controls/TableViewCell/Light-Large" transform="translate(0.000000, 37.000000)">
                    <g id="Group" transform="translate(16.000000, 14.000000)">
                        <g id="status">
                            <circle id="Oval-3" fill="#F5A623" cx="16" cy="16" r="16"></circle>
                            <g id="washingmachine" transform="translate(8.000000, 7.000000)">
                                <g id="Group-3"></g>
                                <path d="M15.0862022,4.07650919 L0.914315283,4.07650919 L0.914315283,1.35717597 C0.914315283,1.10946984 1.12049338,0.905689667 1.37101577,0.905689667 L14.6295017,0.905689667 C14.8795669,0.905689667 15.0862022,1.11037553 15.0862022,1.35717597 L15.0862022,4.07650919 Z M15.0862022,15.8504749 C15.0862022,16.098181 14.8800241,16.302414 14.6295017,16.302414 L1.37101577,16.302414 C1.12095054,16.302414 0.914315283,16.0968225 0.914315283,15.8504749 L0.914315283,4.97993463 L15.0862022,4.97993463 L15.0862022,15.8504749 Z M14.6295017,0 L1.37101577,0 C0.617619974,0 0,0.607717767 0,1.35717597 L0,15.8504749 C0,16.5954046 0.613962712,17.2081037 1.37101577,17.2081037 L14.6295017,17.2081037 C15.3828975,17.2081037 16.0005175,16.6003859 16.0005175,15.8504749 L16.0005175,1.35717597 C16.0005175,0.612246215 15.3865547,0 14.6295017,0 L14.6295017,0 Z" id="Fill-1" fill="#FFFFFF"></path>
                                <path d="M12.3777588,3.32086211 C12.8776995,3.32086211 13.2834484,2.91511314 13.2834484,2.41517245 C13.2834484,1.91523175 12.8776995,1.50948278 12.3777588,1.50948278 C11.8778181,1.50948278 11.4720691,1.91523175 11.4720691,2.41517245 C11.4720691,2.91511314 11.8778181,3.32086211 12.3777588,3.32086211" id="Fill-4" fill="#FFFFFF"></path>
                                <path d="M11.0494139,12.3173795 C10.4725327,12.3173795 9.95453576,12.0639014 9.6007705,11.6632128 C9.24654521,12.0639014 8.72854823,12.3173795 8.151207,12.3173795 C7.57432581,12.3173795 7.05632883,12.0639014 6.70210354,11.6632128 C6.34833828,12.0639014 5.83034129,12.3173795 5.25300007,12.3173795 C4.96823974,12.3173795 4.69774042,12.255275 4.45438305,12.1448672 C4.31591316,11.7446386 4.24092781,11.3149679 4.24092781,10.868276 C4.24092781,8.70842179 5.99181282,6.95799681 8.151207,6.95799681 C10.3110612,6.95799681 12.0614862,8.70842179 12.0614862,10.868276 C12.0614862,11.3149679 11.9865008,11.7446386 11.848491,12.1448672 C11.6051336,12.255275 11.3341743,12.3173795 11.0494139,12.3173795 M8.151207,6.03793111 C5.48347652,6.03793111 3.32086211,8.20054553 3.32086211,10.868276 C3.32086211,13.5355464 5.48347652,15.6986209 8.151207,15.6986209 C10.8189375,15.6986209 12.9815519,13.5355464 12.9815519,10.868276 C12.9815519,8.20054553 10.8189375,6.03793111 8.151207,6.03793111" id="Fill-6" fill="#FFFFFF"></path>
                            </g>
                        </g>
                    </g>
                </g>
            </g>
        </g>
    </g>
</svg>