<?xml version="1.0" encoding="UTF-8"?>
<svg width="18px" height="18px" viewBox="0 0 18 18" version="1.1" xmlns="http://www.w3.org/2000/svg" xmlns:xlink="http://www.w3.org/1999/xlink">
    <!-- Generator: Sketch 46.2 (44496) - http://www.bohemiancoding.com/sketch -->
    <title>tool</title>
    <desc>Created with Sketch.</desc>
    <defs></defs>
    <g id="Page-1" stroke="none" stroke-width="1" fill="none" fill-rule="evenodd">
        <g id="2-Account" transform="translate(-23.000000, -999.000000)" fill="#FFFFFF">
            <g id="Incoming-moves" transform="translate(0.000000, 978.000000)">
                <g id="Controls/TableViewCell/Light-Large">
                    <g id="Group" transform="translate(16.000000, 14.000000)">
                        <g id="tool" transform="translate(7.000000, 7.000000)">
                            <path d="M13.1963258,1.22341348 L12.2862135,2.13352584 C11.3429326,3.07700899 11.3429326,4.62217753 12.2862135,5.56545843 C13.2294944,6.50873933 14.7748652,6.50873933 15.7181461,5.56545843 L16.6282584,4.66161573 C16.6834719,5.65525618 16.3412697,6.66143596 15.579,7.42350337 C14.5495618,8.45294157 13.0699213,8.73224494 11.7868652,8.27678427 C11.5670225,8.19750337 11.3212921,8.25170562 11.1548427,8.41593034 L3.27974157,16.2908292 C2.79697753,16.7737955 2.04340449,16.7735933 1.56064045,16.2908292 C1.07807865,15.8080652 1.0778764,15.0544921 1.56064045,14.5717281 L9.43574157,6.70309888 C9.60219101,6.53806517 9.65882022,6.29213258 9.5811573,6.0710764 C9.12569663,4.78802022 9.39873034,3.30817753 10.4279663,2.27894157 C11.190236,1.51667191 12.2026854,1.1682 13.1963258,1.22341348 M13.3099888,0.00993033708 C11.9676742,-0.0760247191 10.592191,0.39561573 9.56861798,1.41939101 C8.30942697,2.67837978 7.9362809,4.45451461 8.35493258,6.06460449 L0.707561798,13.7184472 C-0.235921348,14.6617281 -0.235921348,16.2070989 0.707561798,17.1503798 C1.6508427,18.0936607 3.19601124,18.0936607 4.13929213,17.1503798 L11.7933371,9.49653708 C13.4030225,9.91437978 15.1801685,9.5416382 16.4385506,8.28305393 C17.8035169,6.91808764 18.1764607,4.93566067 17.5699213,3.22687416 C17.4572697,2.91136854 17.1104157,2.74653708 16.7947079,2.85898652 C16.7107753,2.88871685 16.6345281,2.93685169 16.5712247,2.99934607 L14.8648652,4.70590787 C14.3818989,5.18867191 13.6285281,5.18867191 13.145764,4.70590787 C12.6627978,4.22314382 12.6627978,3.47584045 13.145764,2.9930764 L14.8523258,1.28651461 C15.090573,1.05109888 15.0927978,0.667031461 14.857382,0.428582022 C14.7920562,0.362447191 14.7123708,0.312289888 14.6245955,0.281750562 C14.1974494,0.130065169 13.7573596,0.0386494382 13.3099888,0.00993033708" id="Fill-1"></path>
                        </g>
                    </g>
                </g>
            </g>
        </g>
    </g>
</svg>