<?xml version="1.0" encoding="UTF-8"?>
<svg width="17px" height="19px" viewBox="0 0 17 19" version="1.1" xmlns="http://www.w3.org/2000/svg" xmlns:xlink="http://www.w3.org/1999/xlink">
    <!-- Generator: Sketch 46.2 (44496) - http://www.bohemiancoding.com/sketch -->
    <title>tv</title>
    <desc>Created with Sketch.</desc>
    <defs></defs>
    <g id="Page-1" stroke="none" stroke-width="1" fill="none" fill-rule="evenodd">
        <g id="2-Account" transform="translate(-23.000000, -1121.000000)">
            <g id="Incoming-moves" transform="translate(0.000000, 978.000000)">
                <g id="Controls/TableViewCell/Light-Large" transform="translate(0.000000, 122.000000)">
                    <g id="Group" transform="translate(16.000000, 14.000000)">
                        <g id="tv" transform="translate(7.000000, 7.000000)">
                            <polygon id="Fill-1" fill="#000000" points="2.9147367 17.5026307 3.8863156 17.5026307 3.8863156 17.0026307 2.9147367 17.0026307"></polygon>
                            <polygon id="Fill-2" fill="#000000" points="13.6021046 17.5026307 14.5736835 17.5026307 14.5736835 17.0026307 13.6021046 17.0026307"></polygon>
                            <g id="Group-8" fill="#FFFFFF">
                                <g id="Group-5">
                                    <path d="M0.973473478,10.68285 C0.973473478,10.6857648 0.97153032,10.6886795 0.97153032,10.69208 L0.97153032,10.68285 L0.973473478,10.68285 C0.978817162,10.417609 1.19499347,10.2014327 1.45683398,10.2014327 L15.5456996,10.2014327 C15.8153127,10.2014327 16.0310033,10.417609 16.0310033,10.69208 L0.973473478,10.68285 Z M16.0310033,15.5407445 C16.0310033,15.8103577 15.8109406,16.0309061 15.5456996,16.0309061 L1.45683398,16.0309061 C1.18722084,16.0309061 0.97153032,15.8152156 0.97153032,15.5407445 L0.97153032,11.6636589 L16.0310033,11.6636589 L16.0310033,15.5407445 Z M2.42889867,7.28669601 L14.5736349,7.28669601 L14.5736349,0.971433162 L2.42889867,0.971433162 L2.42889867,7.28669601 Z M15.5456996,9.22985381 L9.47284569,9.22985381 L9.47284569,8.25827491 L15.0603959,8.25827491 C15.3241796,8.25827491 15.5452138,8.04112702 15.5452138,7.77248546 L15.5452138,0.485643713 C15.5452138,0.220888463 15.3280659,-0.000145736835 15.0603959,-0.000145736835 L1.94213764,-0.000145736835 C1.67883976,-0.000145736835 1.45731977,0.217487937 1.45731977,0.485643713 L1.45731977,7.77248546 C1.45731977,8.0377265 1.67446765,8.25827491 1.94213764,8.25827491 L8.01547734,8.25827491 L8.01547734,9.22985381 L1.45683398,9.22985381 C0.656252967,9.22985381 -4.8578945e-05,9.88469798 -4.8578945e-05,10.69208 L-4.8578945e-05,15.5407445 C-4.8578945e-05,16.3529845 0.652366652,17.002485 1.45683398,17.002485 L1.94310922,17.002485 L1.94310922,17.9740639 C1.94310922,18.2446486 2.1602571,18.4598533 2.42792709,18.4598533 L4.37302805,18.4598533 C4.63681172,18.4598533 4.85784592,18.2427055 4.85784592,17.9740639 L4.85784592,17.002485 L12.6304771,17.002485 L12.6304771,17.9740639 C12.6304771,18.2446486 12.847625,18.4598533 13.115295,18.4598533 L15.0603959,18.4598533 C15.3241796,18.4598533 15.5452138,18.2427055 15.5452138,17.9740639 L15.5452138,17.002485 C16.3467664,17.002485 17.0025822,16.3481266 17.0025822,15.5407445 L17.0025822,10.69208 C17.0025822,9.8793543 16.3501669,9.22985381 15.5456996,9.22985381 L15.5456996,9.22985381 Z" id="Fill-3"></path>
                                </g>
                                <path d="M8.74421009,14.5736835 C9.28052164,14.5736835 9.71578899,14.1384161 9.71578899,13.6021046 C9.71578899,13.065793 9.28052164,12.6305257 8.74421009,12.6305257 C8.20789854,12.6305257 7.77263119,13.065793 7.77263119,13.6021046 C7.77263119,14.1384161 8.20789854,14.5736835 8.74421009,14.5736835" id="Fill-6"></path>
                            </g>
                        </g>
                    </g>
                </g>
            </g>
        </g>
    </g>
</svg>