<?xml version="1.0" encoding="UTF-8"?>
<svg width="35px" height="60px" viewBox="0 0 35 60" version="1.1" xmlns="http://www.w3.org/2000/svg" xmlns:xlink="http://www.w3.org/1999/xlink">
    <!-- Generator: Sketch 46.2 (44496) - http://www.bohemiancoding.com/sketch -->
    <title>update</title>
    <desc>Created with Sketch.</desc>
    <defs></defs>
    <g id="Page-1" stroke="none" stroke-width="1" fill="none" fill-rule="evenodd">
        <g id="1-Welcome" transform="translate(-108.000000, -151.000000)">
            <g id="Actions" transform="translate(30.000000, 94.000000)">
                <circle id="Oval-2" stroke="#E1E3E4" cx="157.5" cy="157.5" r="157.5"></circle>
                <g id="update" transform="translate(78.000000, 57.000000)" fill="#434F5A">
                    <path d="M14.9615345,32.1381906 L19.9486165,32.1381906 L19.9486165,22.2327535 C19.9486165,20.8658032 21.0632293,19.7563942 22.4421575,19.7563942 L27.4292394,19.7563942 L17.4550755,6.54997026 L7.48091163,19.7563942 L12.4679936,19.7563942 C13.8444282,19.7563942 14.9615345,20.8658032 14.9615345,22.2327535 L14.9615345,32.1381906 Z M22.4421575,37.0909091 L12.4679936,37.0909091 C11.091559,37.0909091 9.9744526,35.9815001 9.9744526,34.6145498 L9.9744526,24.7091128 L2.49382969,24.7091128 C1.54877766,24.7091128 0.686012487,24.1791719 0.262110522,23.3396861 C-0.159297902,22.5002003 -0.0670368861,21.4972748 0.498996914,20.7469379 L15.4602427,0.936063803 C16.4003077,-0.312021268 18.5098433,-0.312021268 19.4499083,0.936063803 L34.4111541,20.7469379 C34.9771879,21.4972748 35.0669554,22.5002003 34.6480405,23.3396861 C34.2241385,24.1791719 33.3613734,24.7091128 32.4163213,24.7091128 L24.9356984,24.7091128 L24.9356984,34.6145498 C24.9356984,35.9815001 23.8210856,37.0909091 22.4421575,37.0909091 L22.4421575,37.0909091 Z" id="Fill-1"></path>
                    <path d="M22.5454545,44.7272727 L12.3636364,44.7272727 C10.9585455,44.7272727 9.81818182,43.5081818 9.81818182,42 C9.81818182,40.4918182 10.9585455,39.2727273 12.3636364,39.2727273 L22.5454545,39.2727273 C23.9530909,39.2727273 25.0909091,40.4918182 25.0909091,42 C25.0909091,43.5081818 23.9530909,44.7272727 22.5454545,44.7272727" id="Fill-4"></path>
                    <path d="M22.5454545,52.3636364 L12.3636364,52.3636364 C10.9585455,52.3636364 9.81818182,51.1445455 9.81818182,49.6363636 C9.81818182,48.1281818 10.9585455,46.9090909 12.3636364,46.9090909 L22.5454545,46.9090909 C23.9530909,46.9090909 25.0909091,48.1281818 25.0909091,49.6363636 C25.0909091,51.1445455 23.9530909,52.3636364 22.5454545,52.3636364" id="Fill-6"></path>
                    <path d="M22.5454545,60 L12.3636364,60 C10.9585455,60 9.81818182,58.7809091 9.81818182,57.2727273 C9.81818182,55.7645455 10.9585455,54.5454545 12.3636364,54.5454545 L22.5454545,54.5454545 C23.9530909,54.5454545 25.0909091,55.7645455 25.0909091,57.2727273 C25.0909091,58.7809091 23.9530909,60 22.5454545,60" id="Fill-8"></path>
                </g>
            </g>
        </g>
    </g>
</svg>